<svg version="1.1" id="Layer_1" xmlns="http://www.w3.org/2000/svg" xmlns:xlink="http://www.w3.org/1999/xlink" x="0px" y="0px"
	 width="100%" viewBox="0 0 465 500" enable-background="new 0 0 465 500" xml:space="preserve">
<path fill="#000000" opacity="1.000000" stroke="none" 
	d="
M1.000000,180.000000 
	C1.000000,120.015396 1.000000,60.530792 1.000000,1.023093 
	C155.944489,1.023093 310.889008,1.023093 465.916748,1.023093 
	C465.916748,167.568008 465.916748,334.136078 465.916748,500.852051 
	C311.000092,500.852051 156.000076,500.852051 1.000000,500.852051 
	C1.000000,394.110870 1.000000,287.305450 1.000000,180.000000 
M194.131485,39.192364 
	C194.131485,39.192364 194.311768,39.342113 193.661865,39.211372 
	C193.099319,39.753506 192.536774,40.295639 191.466293,41.370499 
	C190.244415,41.881802 188.926346,42.238407 187.815979,42.929016 
	C179.338699,48.201519 171.012695,53.726223 162.425507,58.810860 
	C150.754410,65.721542 138.812347,72.174255 127.134315,79.073608 
	C112.765434,87.562729 98.593788,96.385109 84.252495,104.921669 
	C72.185684,112.104362 60.000950,119.089043 47.862736,126.151604 
	C41.564793,129.816025 37.462093,134.662567 37.698494,142.546417 
	C37.892471,149.015305 37.423412,155.504105 36.634140,162.446213 
	C32.904247,175.202805 30.023533,188.108826 30.012920,201.490387 
	C29.991156,228.934616 30.003922,256.378876 30.009527,283.823120 
	C30.010199,287.109833 30.142078,290.398621 30.063480,293.682861 
	C29.747728,306.876770 29.485558,320.073822 28.954357,333.259674 
	C28.786634,337.422974 28.184515,341.641327 27.169876,345.680908 
	C25.670759,351.649384 24.970018,357.503571 27.836872,363.163239 
	C30.529486,368.478943 32.900848,374.167358 36.638149,378.676941 
	C39.591194,382.240204 44.068226,385.598083 48.456570,386.695557 
	C57.779991,389.027283 67.566284,389.431366 75.611389,395.729706 
	C78.315804,397.846924 81.638000,399.154724 84.542740,401.040527 
	C90.596497,404.970764 96.625771,408.945679 102.545143,413.074249 
	C111.056877,419.010864 119.240608,425.452698 128.013702,430.963501 
	C131.877716,433.390656 136.999161,433.717590 141.269821,435.624786 
	C145.164307,437.364044 148.885300,439.673553 152.323624,442.217194 
	C161.356155,448.899567 172.200256,452.157043 181.414032,458.826416 
	C194.516632,468.310730 208.917709,476.036804 223.022049,484.060516 
	C224.988770,485.179352 228.423996,483.716797 232.016068,483.717896 
	C234.331909,483.781830 236.647736,483.845734 239.547272,484.479156 
	C245.164749,485.899200 249.958206,485.324005 253.305573,479.727264 
	C254.098129,478.402100 256.189423,477.614410 257.845032,477.093170 
	C261.612671,475.906952 265.519928,475.168335 269.300293,474.017334 
	C278.981628,471.069763 286.676880,464.728516 294.599152,458.836639 
	C300.175232,454.689636 305.201782,449.690857 311.112427,446.133759 
	C319.420532,441.133942 328.277649,437.281982 335.603516,430.480438 
	C340.971008,425.497131 347.813629,422.102661 354.735229,417.891907 
	C357.349518,416.894562 360.032471,416.045471 362.565399,414.872437 
	C370.530762,411.183533 378.466675,407.428253 386.362183,403.592102 
	C392.875336,400.427521 399.316315,397.114258 405.786560,393.861481 
	C413.173248,390.147980 419.868134,385.766022 422.293488,376.554962 
	C422.764465,376.329803 423.235443,376.104645 424.441986,375.844208 
	C424.910065,375.103699 425.378143,374.363190 425.912567,373.251312 
	C426.034943,373.009918 426.228149,372.859680 427.253296,372.858032 
	C432.614136,370.395813 433.883209,365.182800 434.841400,360.293091 
	C435.917603,354.801208 436.120361,349.099640 436.290131,343.476837 
	C436.616058,332.682312 437.205872,321.851318 436.669891,311.086060 
	C435.945984,296.545990 433.817841,282.074860 433.124878,267.534515 
	C432.499023,254.401428 432.899139,241.213867 433.058777,228.052887 
	C433.098541,224.774399 433.925720,221.501007 434.444672,218.233795 
	C435.270264,213.036377 436.855927,207.846848 436.861145,202.652710 
	C436.878235,185.696243 436.728607,168.716995 435.795135,151.793289 
	C435.419952,144.991058 434.340088,137.390244 430.903076,131.799011 
	C426.243286,124.218590 419.662903,117.426819 412.732544,111.723000 
	C401.397675,102.394157 387.544922,97.223686 374.263062,91.202080 
	C367.063904,87.938210 360.191803,83.949326 352.975433,80.728317 
	C347.304260,78.196991 341.331451,76.341438 334.999207,74.164940 
	C334.631195,73.864159 334.263153,73.563377 333.869293,72.551086 
	C328.288239,68.227776 322.934296,63.563118 317.071930,59.662605 
	C308.659546,54.065411 299.706543,49.280579 291.296631,43.679932 
	C281.787109,37.346951 272.684784,30.405642 263.276245,23.916122 
	C259.869019,21.566000 255.795441,20.135458 252.543625,17.616873 
	C246.959442,13.291804 240.945251,12.012829 234.358688,14.020343 
	C231.289612,14.955759 228.418869,16.648375 225.583374,18.223095 
	C217.934143,22.471161 210.220596,26.630436 202.813904,31.273716 
	C200.178665,32.925751 198.353226,35.869534 196.095184,38.084335 
	C196.095184,38.084335 196.208374,38.187096 195.548904,38.126656 
	C195.121201,38.545906 194.693512,38.965160 194.131485,39.192364 
z"/>
<path fill="#DDDCC8" opacity="1.000000" stroke="none" 
	d="
M37.248253,161.984070 
	C37.423412,155.504105 37.892471,149.015305 37.698494,142.546417 
	C37.462093,134.662567 41.564793,129.816025 47.862736,126.151604 
	C60.000950,119.089043 72.185684,112.104362 84.252495,104.921669 
	C98.593788,96.385109 112.765434,87.562729 127.134315,79.073608 
	C138.812347,72.174255 150.754410,65.721542 162.425507,58.810860 
	C171.012695,53.726223 179.338699,48.201519 187.815979,42.929016 
	C188.926346,42.238407 190.244415,41.881802 192.011292,41.081169 
	C193.141449,40.308594 193.726608,39.825352 194.311768,39.342110 
	C194.311768,39.342113 194.131485,39.192364 194.499344,39.251976 
	C195.314255,38.936756 195.761322,38.561924 196.208374,38.187096 
	C196.208374,38.187096 196.095184,38.084335 196.484131,38.136673 
	C207.217865,32.167271 217.724869,26.402575 227.840637,20.018036 
	C233.092239,16.703512 237.476791,16.995647 242.577728,20.043434 
	C261.708649,31.474073 280.942993,42.732624 300.192322,53.963551 
	C311.373688,60.487267 322.657440,66.835434 333.895142,73.262604 
	C334.263153,73.563377 334.631195,73.864159 335.452698,74.468246 
	C363.819397,91.299423 391.639679,107.987648 419.709473,124.245132 
	C426.946899,128.436905 429.859222,133.947342 429.846039,142.081009 
	C429.729614,213.839966 429.846405,285.599365 429.637817,357.357941 
	C429.622803,362.508453 427.587952,367.653168 426.492249,372.800568 
	C426.228149,372.859680 426.034943,373.009918 425.586914,373.569305 
	C424.742981,374.551361 424.224701,375.215424 423.706421,375.879486 
	C423.235443,376.104645 422.764465,376.329803 421.794250,376.790161 
	C418.562408,378.604950 415.820129,380.168213 413.098633,381.766785 
	C392.613312,393.799530 372.132111,405.839233 351.311157,417.917175 
	C330.437531,429.891388 309.854156,441.743256 289.382172,453.784454 
	C272.507538,463.709869 255.764786,473.859467 238.963593,483.909668 
	C236.647736,483.845734 234.331909,483.781830 231.417969,483.378723 
	C230.429718,482.454651 230.039581,481.869781 229.761536,480.879639 
	C229.980545,479.640442 230.087479,478.806488 230.562164,477.894653 
	C235.951553,475.750824 241.221451,474.135010 245.945602,471.529633 
	C257.458435,465.180206 268.715881,458.368011 280.080414,451.749390 
	C324.684753,425.772400 369.256409,399.738800 413.936859,373.893372 
	C419.939026,370.421356 422.559998,365.976135 422.538452,358.982697 
	C422.317902,287.331207 422.233612,215.678970 422.335938,144.027267 
	C422.346069,136.944153 419.600891,132.517059 413.636871,129.158997 
	C400.579895,121.807198 387.689636,114.159081 374.737732,106.620880 
	C330.415649,80.824806 286.081665,55.049107 241.796021,29.190620 
	C236.687653,26.207832 231.961258,26.011105 226.788055,29.057377 
	C169.249741,62.939137 111.687080,96.779793 54.067352,130.522873 
	C47.698288,134.252701 44.682098,139.126877 44.698696,146.698792 
	C44.853947,217.517273 44.754433,288.336334 44.908237,359.154816 
	C44.914989,362.262878 46.659504,365.367126 47.381851,368.959534 
	C47.031151,370.850464 46.893150,372.255035 46.402653,373.531921 
	C39.117088,370.785065 37.922024,368.719330 37.919895,358.835571 
	C37.906197,295.337006 37.918472,231.838409 37.883602,168.339844 
	C37.882439,166.221130 37.469337,164.102661 37.248253,161.984070 
z"/>
<path fill="#0B0914" opacity="1.000000" stroke="none" 
	d="
M36.941193,162.215149 
	C37.469337,164.102661 37.882439,166.221130 37.883602,168.339844 
	C37.918472,231.838409 37.906197,295.337006 37.919895,358.835571 
	C37.922024,368.719330 39.117088,370.785065 46.452274,373.853027 
	C48.058716,375.162720 49.210083,376.111908 50.475380,376.871277 
	C67.717224,387.218140 84.859070,397.738312 102.251518,407.826202 
	C144.654709,432.420685 187.175812,456.811859 229.649445,481.284882 
	C230.039581,481.869781 230.429718,482.454651 230.999664,483.244385 
	C228.423996,483.716797 224.988770,485.179352 223.022049,484.060516 
	C208.917709,476.036804 194.516632,468.310730 181.414032,458.826416 
	C172.200256,452.157043 161.356155,448.899567 152.323624,442.217194 
	C148.885300,439.673553 145.164307,437.364044 141.269821,435.624786 
	C136.999161,433.717590 131.877716,433.390656 128.013702,430.963501 
	C119.240608,425.452698 111.056877,419.010864 102.545143,413.074249 
	C96.625771,408.945679 90.596497,404.970764 84.542740,401.040527 
	C81.638000,399.154724 78.315804,397.846924 75.611389,395.729706 
	C67.566284,389.431366 57.779991,389.027283 48.456570,386.695557 
	C44.068226,385.598083 39.591194,382.240204 36.638149,378.676941 
	C32.900848,374.167358 30.529486,368.478943 27.836872,363.163239 
	C24.970018,357.503571 25.670759,351.649384 27.169876,345.680908 
	C28.184515,341.641327 28.786634,337.422974 28.954357,333.259674 
	C29.485558,320.073822 29.747728,306.876770 30.063480,293.682861 
	C30.142078,290.398621 30.010199,287.109833 30.009527,283.823120 
	C30.003922,256.378876 29.991156,228.934616 30.012920,201.490387 
	C30.023533,188.108826 32.904247,175.202805 36.941193,162.215149 
z"/>
<path fill="#0B0A15" opacity="1.000000" stroke="none" 
	d="
M426.872772,372.829285 
	C427.587952,367.653168 429.622803,362.508453 429.637817,357.357941 
	C429.846405,285.599365 429.729614,213.839966 429.846039,142.081009 
	C429.859222,133.947342 426.946899,128.436905 419.709473,124.245132 
	C391.639679,107.987648 363.819397,91.299423 335.699402,74.478638 
	C341.331451,76.341438 347.304260,78.196991 352.975433,80.728317 
	C360.191803,83.949326 367.063904,87.938210 374.263062,91.202080 
	C387.544922,97.223686 401.397675,102.394157 412.732544,111.723000 
	C419.662903,117.426819 426.243286,124.218590 430.903076,131.799011 
	C434.340088,137.390244 435.419952,144.991058 435.795135,151.793289 
	C436.728607,168.716995 436.878235,185.696243 436.861145,202.652710 
	C436.855927,207.846848 435.270264,213.036377 434.444672,218.233795 
	C433.925720,221.501007 433.098541,224.774399 433.058777,228.052887 
	C432.899139,241.213867 432.499023,254.401428 433.124878,267.534515 
	C433.817841,282.074860 435.945984,296.545990 436.669891,311.086060 
	C437.205872,321.851318 436.616058,332.682312 436.290131,343.476837 
	C436.120361,349.099640 435.917603,354.801208 434.841400,360.293091 
	C433.883209,365.182800 432.614136,370.395813 426.872772,372.829285 
z"/>
<path fill="#0D0C18" opacity="1.000000" stroke="none" 
	d="
M333.882202,72.906845 
	C322.657440,66.835434 311.373688,60.487267 300.192322,53.963551 
	C280.942993,42.732624 261.708649,31.474073 242.577728,20.043434 
	C237.476791,16.995647 233.092239,16.703512 227.840637,20.018036 
	C217.724869,26.402575 207.217865,32.167271 196.515610,38.206333 
	C198.353226,35.869534 200.178665,32.925751 202.813904,31.273716 
	C210.220596,26.630436 217.934143,22.471161 225.583374,18.223095 
	C228.418869,16.648375 231.289612,14.955759 234.358688,14.020343 
	C240.945251,12.012829 246.959442,13.291804 252.543625,17.616873 
	C255.795441,20.135458 259.869019,21.566000 263.276245,23.916122 
	C272.684784,30.405642 281.787109,37.346951 291.296631,43.679932 
	C299.706543,49.280579 308.659546,54.065411 317.071930,59.662605 
	C322.934296,63.563118 328.288239,68.227776 333.882202,72.906845 
z"/>
<path fill="#0D0C17" opacity="1.000000" stroke="none" 
	d="
M239.255432,484.194397 
	C255.764786,473.859467 272.507538,463.709869 289.382172,453.784454 
	C309.854156,441.743256 330.437531,429.891388 351.702026,417.950562 
	C352.953827,417.962372 353.476318,417.981171 353.998779,418.000000 
	C347.813629,422.102661 340.971008,425.497131 335.603516,430.480438 
	C328.277649,437.281982 319.420532,441.133942 311.112427,446.133759 
	C305.201782,449.690857 300.175232,454.689636 294.599152,458.836639 
	C286.676880,464.728516 278.981628,471.069763 269.300293,474.017334 
	C265.519928,475.168335 261.612671,475.906952 257.845032,477.093170 
	C256.189423,477.614410 254.098129,478.402100 253.305573,479.727264 
	C249.958206,485.324005 245.164749,485.899200 239.255432,484.194397 
z"/>
<path fill="#0E0D18" opacity="1.000000" stroke="none" 
	d="
M354.367004,417.945953 
	C353.476318,417.981171 352.953827,417.962372 352.040527,417.910156 
	C372.132111,405.839233 392.613312,393.799530 413.098633,381.766785 
	C415.820129,380.168213 418.562408,378.604950 421.649780,377.013123 
	C419.868134,385.766022 413.173248,390.147980 405.786560,393.861481 
	C399.316315,397.114258 392.875336,400.427521 386.362183,403.592102 
	C378.466675,407.428253 370.530762,411.183533 362.565399,414.872437 
	C360.032471,416.045471 357.349518,416.894562 354.367004,417.945953 
z"/>
<path fill="#0D0C18" opacity="1.000000" stroke="none" 
	d="
M193.986816,39.276741 
	C193.726608,39.825352 193.141449,40.308594 192.265259,40.814804 
	C192.536774,40.295639 193.099319,39.753506 193.986816,39.276741 
z"/>
<path fill="#0B0A15" opacity="1.000000" stroke="none" 
	d="
M424.074219,375.861847 
	C424.224701,375.215424 424.742981,374.551361 425.553741,373.755005 
	C425.378143,374.363190 424.910065,375.103699 424.074219,375.861847 
z"/>
<path fill="#0D0C18" opacity="1.000000" stroke="none" 
	d="
M195.878632,38.156876 
	C195.761322,38.561924 195.314255,38.936756 194.566498,39.348000 
	C194.693512,38.965160 195.121201,38.545906 195.878632,38.156876 
z"/>
<path fill="#150E15" opacity="1.000000" stroke="none" 
	d="
M47.594543,368.473175 
	C46.659504,365.367126 44.914989,362.262878 44.908237,359.154816 
	C44.754433,288.336334 44.853947,217.517273 44.698696,146.698792 
	C44.682098,139.126877 47.698288,134.252701 54.067352,130.522873 
	C111.687080,96.779793 169.249741,62.939137 226.788055,29.057377 
	C231.961258,26.011105 236.687653,26.207832 241.796021,29.190620 
	C286.081665,55.049107 330.415649,80.824806 374.737732,106.620880 
	C387.689636,114.159081 400.579895,121.807198 413.636871,129.158997 
	C419.600891,132.517059 422.346069,136.944153 422.335938,144.027267 
	C422.233612,215.678970 422.317902,287.331207 422.538452,358.982697 
	C422.559998,365.976135 419.939026,370.421356 413.936859,373.893372 
	C369.256409,399.738800 324.684753,425.772400 280.080414,451.749390 
	C268.715881,458.368011 257.458435,465.180206 245.945602,471.529633 
	C241.221451,474.135010 235.951553,475.750824 230.473175,477.552673 
	C228.684143,476.331329 227.415161,475.267670 226.010330,474.432526 
	C188.415985,452.084625 150.807434,429.760681 113.201790,407.431793 
	C91.332230,394.446381 69.463600,381.459412 47.594543,368.473175 
M113.422112,109.026451 
	C112.990143,109.362877 112.558182,109.699310 111.421867,110.166336 
	C109.263168,111.380646 107.096497,112.581047 104.947113,113.811630 
	C94.494087,119.796303 84.283989,126.262726 73.539917,131.668182 
	C57.339016,139.819016 54.581505,144.018173 56.222649,161.949402 
	C56.252819,162.279099 56.317093,162.605667 56.123249,163.854767 
	C56.302158,172.562012 56.481068,181.269241 56.405472,190.750717 
	C56.592548,194.499039 56.779625,198.247375 56.443325,202.639740 
	C56.592739,210.053604 56.742153,217.467468 56.334007,225.528412 
	C56.370121,235.025513 56.406235,244.522598 56.290882,254.943985 
	C56.477196,268.656586 56.663513,282.369171 56.568623,296.963379 
	C56.689228,317.601440 56.777485,338.239868 57.008854,358.876678 
	C57.023109,360.148224 57.822697,361.949280 58.835388,362.590759 
	C74.847702,372.733917 90.791924,383.000793 107.072769,392.700470 
	C145.539871,415.618134 184.270309,438.094818 222.667847,461.127289 
	C230.367035,465.745605 236.743057,465.834625 244.390823,461.245422 
	C269.794922,446.001038 295.468933,431.206024 321.055786,416.266693 
	C349.661102,399.564972 378.315674,382.947296 406.877197,366.171112 
	C413.854553,362.072845 414.310944,359.758057 410.931702,351.936707 
	C411.142975,349.623779 411.540039,347.310486 411.535706,344.997955 
	C411.504791,328.511658 411.306976,312.025452 411.321228,295.539337 
	C411.362854,247.398468 411.435669,199.257492 411.618011,151.117020 
	C411.641815,144.845200 410.259857,140.048187 404.250610,136.600449 
	C351.134186,106.125549 298.139099,75.439171 244.986465,44.145027 
	C237.877518,37.664207 233.630783,37.517445 225.519913,42.540432 
	C215.495880,48.748226 205.208298,54.528759 195.085312,60.578758 
	C173.710617,73.353363 152.368927,86.183144 130.430374,98.999779 
	C129.934875,99.263298 129.439377,99.526817 128.341782,99.879425 
	C127.870064,100.238831 127.398346,100.598236 126.987724,100.997116 
	C126.987724,100.997116 126.961334,100.929344 126.278587,101.082687 
	C122.146011,103.695076 118.013428,106.307457 113.959724,108.934982 
	C113.959724,108.934982 113.960449,108.854668 113.422112,109.026451 
z"/>
<path fill="#BA5760" opacity="1.000000" stroke="none" 
	d="
M47.381844,368.959534 
	C69.463600,381.459412 91.332230,394.446381 113.201790,407.431793 
	C150.807434,429.760681 188.415985,452.084625 226.010330,474.432526 
	C227.415161,475.267670 228.684143,476.331329 230.105408,477.630524 
	C230.087479,478.806488 229.980545,479.640442 229.761536,480.879639 
	C187.175812,456.811859 144.654709,432.420685 102.251518,407.826202 
	C84.859070,397.738312 67.717224,387.218140 50.475380,376.871277 
	C49.210083,376.111908 48.058716,375.162720 46.804775,373.980652 
	C46.893150,372.255035 47.031151,370.850464 47.381844,368.959534 
z"/>
<path fill="#FBFBD2" opacity="1.000000" stroke="none" 
	d="
M245.108139,44.815281 
	C298.139099,75.439171 351.134186,106.125549 404.250610,136.600449 
	C410.259857,140.048187 411.641815,144.845200 411.618011,151.117020 
	C411.435669,199.257492 411.362854,247.398468 411.321228,295.539337 
	C411.306976,312.025452 411.504791,328.511658 411.535706,344.997955 
	C411.540039,347.310486 411.142975,349.623779 410.436646,352.408203 
	C404.460114,355.683014 398.840820,358.248383 393.520294,361.329651 
	C365.868774,377.343567 338.286804,393.477600 310.695160,409.594696 
	C300.867981,415.335022 291.093658,421.165863 281.271545,426.914886 
	C276.590485,429.654785 271.838104,432.272614 267.147003,434.995544 
	C261.896271,438.043304 256.678619,441.148010 251.446030,444.227020 
	C246.459564,447.161133 241.570236,450.287109 236.419540,452.897278 
	C235.063263,453.584595 232.596939,453.212250 231.157272,452.404816 
	C225.470367,449.215424 220.015411,445.615692 214.425598,442.249237 
	C204.076004,436.016266 193.689774,429.844147 183.323334,423.639099 
	C176.961304,419.830994 170.606049,416.011566 164.250656,412.192383 
	C151.893616,404.766724 139.543396,397.329681 127.181282,389.912476 
	C117.723160,384.237579 108.277199,378.541656 98.777382,372.937195 
	C90.402519,367.996399 81.896225,363.275452 73.582664,358.235260 
	C70.617523,356.437561 68.837677,354.152374 68.901512,349.834106 
	C69.221062,328.216827 68.931870,306.590546 69.010193,284.619568 
	C68.895256,274.548706 68.626808,264.825684 68.540123,254.731079 
	C68.573227,245.615265 68.424576,236.871002 68.480965,227.762299 
	C68.477982,217.584961 68.269958,207.772079 68.153732,197.556732 
	C68.343048,191.759094 68.440582,186.363937 68.632797,180.554916 
	C68.869835,169.771622 69.012199,159.402161 69.389374,148.803574 
	C72.528717,146.378998 75.246895,143.865646 78.366463,142.037079 
	C111.064011,122.871239 143.876404,103.901062 176.550461,84.695480 
	C195.461060,73.579964 214.177475,62.134125 233.358765,50.884186 
	C237.526855,48.892712 241.317505,46.853996 245.108139,44.815281 
M129.141479,268.499939 
	C129.141541,288.656769 129.238113,308.814362 129.077881,328.969910 
	C129.034546,334.421814 131.187912,338.101746 135.772278,340.826996 
	C167.676956,359.793060 199.561890,378.792572 231.398682,397.872223 
	C235.426895,400.286316 239.025162,400.317596 243.056122,397.924652 
	C276.118164,378.297546 309.217987,358.733917 342.343750,339.214508 
	C346.806641,336.584747 348.762421,333.019226 348.758514,327.766724 
	C348.721100,277.458130 348.808044,227.149338 348.932190,176.840790 
	C348.944580,171.819138 346.909576,168.431366 342.599121,165.861435 
	C311.289703,147.194504 279.997040,128.498138 248.821671,109.608780 
	C241.447754,105.140892 234.742661,105.133530 227.331375,109.536072 
	C196.710144,127.726089 165.982468,145.738297 135.190262,163.637543 
	C130.726807,166.232117 129.044586,169.484665 129.068436,174.545715 
	C129.214447,205.529877 129.141479,236.515076 129.141479,268.499939 
z"/>
<path fill="#DF4951" opacity="1.000000" stroke="none" 
	d="
M68.856674,284.967407 
	C68.931870,306.590546 69.221062,328.216827 68.901512,349.834106 
	C68.837677,354.152374 70.617523,356.437561 73.582664,358.235260 
	C81.896225,363.275452 90.402519,367.996399 98.777382,372.937195 
	C108.277199,378.541656 117.723160,384.237579 127.181282,389.912476 
	C139.543396,397.329681 151.893616,404.766724 164.250656,412.192383 
	C170.606049,416.011566 176.961304,419.830994 183.323334,423.639099 
	C193.689774,429.844147 204.076004,436.016266 214.425598,442.249237 
	C220.015411,445.615692 225.470367,449.215424 231.157272,452.404816 
	C232.596939,453.212250 235.063263,453.584595 236.419540,452.897278 
	C241.570236,450.287109 246.459564,447.161133 251.446030,444.227020 
	C256.678619,441.148010 261.896271,438.043304 267.147003,434.995544 
	C271.838104,432.272614 276.590485,429.654785 281.271545,426.914886 
	C291.093658,421.165863 300.867981,415.335022 310.695160,409.594696 
	C338.286804,393.477600 365.868774,377.343567 393.520294,361.329651 
	C398.840820,358.248383 404.460114,355.683014 410.289551,352.847412 
	C414.310944,359.758057 413.854553,362.072845 406.877197,366.171112 
	C378.315674,382.947296 349.661102,399.564972 321.055786,416.266693 
	C295.468933,431.206024 269.794922,446.001038 244.390823,461.245422 
	C236.743057,465.834625 230.367035,465.745605 222.667847,461.127289 
	C184.270309,438.094818 145.539871,415.618134 107.072769,392.700470 
	C90.791924,383.000793 74.847702,372.733917 58.835388,362.590759 
	C57.822697,361.949280 57.023109,360.148224 57.008854,358.876678 
	C56.777485,338.239868 56.689228,317.601440 56.976418,296.291107 
	C57.929691,290.084930 58.475174,284.550995 59.365658,279.166718 
	C62.119404,279.878113 64.528152,280.439880 66.957565,281.363647 
	C67.604378,282.806244 68.230522,283.886810 68.856674,284.967407 
z"/>
<path fill="#5ABCB6" opacity="1.000000" stroke="none" 
	d="
M232.981293,50.836948 
	C214.177475,62.134125 195.461060,73.579964 176.550461,84.695480 
	C143.876404,103.901062 111.064011,122.871239 78.366463,142.037079 
	C75.246895,143.865646 72.528717,146.378998 69.083427,149.006775 
	C67.602074,152.737076 66.476112,155.995178 65.756920,159.340744 
	C63.872810,168.105408 63.076130,168.484085 56.842335,163.063461 
	C56.730396,162.966125 56.526463,162.974594 56.365456,162.933701 
	C56.317093,162.605667 56.252819,162.279099 56.222649,161.949402 
	C54.581505,144.018173 57.339016,139.819016 73.539917,131.668182 
	C84.283989,126.262726 94.494087,119.796303 104.947113,113.811630 
	C107.096497,112.581047 109.263168,111.380646 112.059860,110.052559 
	C113.118721,109.577408 113.539589,109.216042 113.960449,108.854675 
	C113.960449,108.854668 113.959724,108.934982 114.334633,108.950844 
	C121.000694,108.684563 126.034798,105.382111 126.961334,100.929344 
	C126.961334,100.929344 126.987724,100.997116 127.271011,100.953568 
	C128.017487,100.536789 128.480682,100.163559 128.943878,99.790329 
	C129.439377,99.526817 129.934875,99.263298 131.130875,98.992661 
	C134.087280,98.515770 136.616837,98.548698 138.554291,97.493973 
	C150.374695,91.059090 162.134415,84.504303 173.774002,77.747704 
	C191.146667,67.663147 208.388458,57.353374 225.719833,47.197273 
	C229.751648,44.834648 231.737839,45.909393 232.981293,50.836948 
z"/>
<path fill="#69BCBA" opacity="1.000000" stroke="none" 
	d="
M233.358765,50.884186 
	C231.737839,45.909393 229.751648,44.834648 225.719833,47.197273 
	C208.388458,57.353374 191.146667,67.663147 173.774002,77.747704 
	C162.134415,84.504303 150.374695,91.059090 138.554291,97.493973 
	C136.616837,98.548698 134.087280,98.515770 131.422531,98.987915 
	C152.368927,86.183144 173.710617,73.353363 195.085312,60.578758 
	C205.208298,54.528759 215.495880,48.748226 225.519913,42.540432 
	C233.630783,37.517445 237.877518,37.664207 245.047302,44.480156 
	C241.317505,46.853996 237.526855,48.892712 233.358765,50.884186 
z"/>
<path fill="#AD4E51" opacity="1.000000" stroke="none" 
	d="
M69.010185,284.619568 
	C68.230522,283.886810 67.604378,282.806244 66.967621,280.984497 
	C66.035744,277.228973 65.931335,273.234924 61.658028,273.372467 
	C60.719318,273.402679 59.896729,277.040558 59.020664,279.017090 
	C58.475174,284.550995 57.929691,290.084930 57.117020,295.850281 
	C56.663513,282.369171 56.477196,268.656586 56.683205,254.401321 
	C60.626854,250.302155 63.957127,250.359940 67.097794,254.422714 
	C67.364647,254.767899 67.931084,254.881485 68.358353,255.102661 
	C68.626808,264.825684 68.895256,274.548706 69.010185,284.619568 
z"/>
<path fill="#A0636C" opacity="1.000000" stroke="none" 
	d="
M68.540115,254.731094 
	C67.931084,254.881485 67.364647,254.767899 67.097794,254.422714 
	C63.957127,250.359940 60.626854,250.302155 56.758942,253.939178 
	C56.406235,244.522598 56.370121,235.025513 57.025963,225.227448 
	C61.237247,225.993225 64.756584,227.059982 68.275925,228.126740 
	C68.424576,236.871002 68.573227,245.615265 68.540115,254.731094 
z"/>
<path fill="#85858C" opacity="1.000000" stroke="none" 
	d="
M68.480957,227.762283 
	C64.756584,227.059982 61.237247,225.993225 57.304741,224.903900 
	C56.742153,217.467468 56.592739,210.053604 57.130611,202.317047 
	C62.138638,202.949509 65.180099,200.656982 68.061935,197.959198 
	C68.269958,207.772079 68.477982,217.584961 68.480957,227.762283 
z"/>
<path fill="#6CA89F" opacity="1.000000" stroke="none" 
	d="
M56.244354,163.394226 
	C56.526463,162.974594 56.730396,162.966125 56.842335,163.063461 
	C63.076130,168.484085 63.872810,168.105408 65.756920,159.340744 
	C66.476112,155.995178 67.602074,152.737076 68.848610,149.235901 
	C69.012199,159.402161 68.869835,169.771622 68.342087,180.660568 
	C65.121559,185.307114 62.519234,189.733139 56.659977,189.976486 
	C56.481068,181.269241 56.302158,172.562012 56.244354,163.394226 
z"/>
<path fill="#7CB2A0" opacity="1.000000" stroke="none" 
	d="
M56.532722,190.363602 
	C62.519234,189.733139 65.121559,185.307114 68.247406,181.074417 
	C68.440582,186.363937 68.343048,191.759094 68.153732,197.556732 
	C65.180099,200.656982 62.138638,202.949509 57.392303,201.995026 
	C56.779625,198.247375 56.592548,194.499039 56.532722,190.363602 
z"/>
<path fill="#66B7B5" opacity="1.000000" stroke="none" 
	d="
M126.619965,101.006012 
	C126.034798,105.382111 121.000694,108.684563 114.295197,108.943268 
	C118.013428,106.307457 122.146011,103.695076 126.619965,101.006012 
z"/>
<path fill="#66B7B5" opacity="1.000000" stroke="none" 
	d="
M113.691284,108.940567 
	C113.539589,109.216042 113.118721,109.577408 112.412033,109.987259 
	C112.558182,109.699310 112.990143,109.362877 113.691284,108.940567 
z"/>
<path fill="#66B7B5" opacity="1.000000" stroke="none" 
	d="
M128.642822,99.834885 
	C128.480682,100.163559 128.017487,100.536789 127.240463,100.933838 
	C127.398346,100.598236 127.870064,100.238831 128.642822,99.834885 
z"/>
<path fill="#070611" opacity="1.000000" stroke="none" 
	d="
M129.141479,267.999939 
	C129.141479,236.515076 129.214447,205.529877 129.068436,174.545715 
	C129.044586,169.484665 130.726807,166.232117 135.190262,163.637543 
	C165.982468,145.738297 196.710144,127.726089 227.331375,109.536072 
	C234.742661,105.133530 241.447754,105.140892 248.821671,109.608780 
	C279.997040,128.498138 311.289703,147.194504 342.599121,165.861435 
	C346.909576,168.431366 348.944580,171.819138 348.932190,176.840790 
	C348.808044,227.149338 348.721100,277.458130 348.758514,327.766724 
	C348.762421,333.019226 346.806641,336.584747 342.343750,339.214508 
	C309.217987,358.733917 276.118164,378.297546 243.056122,397.924652 
	C239.025162,400.317596 235.426895,400.286316 231.398682,397.872223 
	C199.561890,378.792572 167.676956,359.793060 135.772278,340.826996 
	C131.187912,338.101746 129.034546,334.421814 129.077881,328.969910 
	C129.238113,308.814362 129.141541,288.656769 129.141479,267.999939 
M293.290771,191.332413 
	C284.927124,177.137848 272.510956,168.719086 256.128143,167.946640 
	C235.523544,166.975143 214.860703,167.254272 194.223785,166.941483 
	C189.271072,166.866409 188.612625,170.018799 188.600800,173.885742 
	C188.438873,226.834549 188.287613,279.783417 188.041245,332.731842 
	C188.018936,337.523773 190.012131,339.116211 194.685974,339.047516 
	C208.505493,338.844360 222.340149,339.298828 236.148880,338.862579 
	C245.569824,338.564941 255.214813,338.278961 264.306091,336.097626 
	C283.315643,331.536560 295.639374,318.997131 298.718872,299.686218 
	C301.777100,280.508545 297.526978,263.238922 279.090729,252.431168 
	C278.734711,252.222473 278.541229,251.736496 278.028473,251.057526 
	C279.651123,249.971832 281.377808,249.193283 282.601379,247.928177 
	C286.477631,243.920212 291.194427,240.278091 293.734039,235.508347 
	C301.349060,221.206085 300.894989,206.480576 293.290771,191.332413 
z"/>
<path fill="#D3515B" opacity="1.000000" stroke="none" 
	d="
M59.365662,279.166718 
	C59.896729,277.040558 60.719318,273.402679 61.658028,273.372467 
	C65.931335,273.234924 66.035744,277.228973 66.946945,280.622498 
	C64.528152,280.439880 62.119404,279.878113 59.365662,279.166718 
z"/>
<path fill="#F7F7CF" opacity="1.000000" stroke="none" 
	d="
M293.473236,191.657196 
	C300.894989,206.480576 301.349060,221.206085 293.734039,235.508347 
	C291.194427,240.278091 286.477631,243.920212 282.601379,247.928177 
	C281.377808,249.193283 279.651123,249.971832 278.028473,251.057526 
	C278.541229,251.736496 278.734711,252.222473 279.090729,252.431168 
	C297.526978,263.238922 301.777100,280.508545 298.718872,299.686218 
	C295.639374,318.997131 283.315643,331.536560 264.306091,336.097626 
	C255.214813,338.278961 245.569824,338.564941 236.148880,338.862579 
	C222.340149,339.298828 208.505493,338.844360 194.685974,339.047516 
	C190.012131,339.116211 188.018936,337.523773 188.041245,332.731842 
	C188.287613,279.783417 188.438873,226.834549 188.600800,173.885742 
	C188.612625,170.018799 189.271072,166.866409 194.223785,166.941483 
	C214.860703,167.254272 235.523544,166.975143 256.128143,167.946640 
	C272.510956,168.719086 284.927124,177.137848 293.473236,191.657196 
M254.367233,307.055328 
	C264.391235,301.911407 268.357147,292.992279 266.117737,280.629211 
	C264.537689,271.906525 257.676971,266.028015 247.314346,264.976990 
	C241.198395,264.356750 235.033997,264.076721 228.885223,263.955048 
	C222.238770,263.823486 219.478317,266.112579 219.535645,272.761444 
	C219.624420,283.060944 220.249924,293.369659 221.047729,303.643402 
	C221.454056,308.875793 224.356720,311.689636 229.713684,311.200867 
	C237.740723,310.468475 245.668655,308.649750 254.367233,307.055328 
M238.454193,238.909561 
	C241.932999,238.592285 245.425003,238.378815 248.888229,237.938843 
	C260.642731,236.445480 266.558807,229.292419 266.953796,216.225403 
	C267.230255,207.079773 259.239929,197.275055 249.704575,195.872147 
	C242.647644,194.833893 235.475311,194.397369 228.338318,194.142197 
	C222.289642,193.925934 219.945175,196.368317 219.750931,202.582123 
	C219.460419,211.875763 219.311966,221.176071 219.268600,230.474319 
	C219.243484,235.858856 221.818054,239.027786 227.157776,239.587326 
	C230.569748,239.944855 234.091599,239.253967 238.454193,238.909561 
z"/>
<path fill="#090815" opacity="1.000000" stroke="none" 
	d="
M254.002991,307.174194 
	C245.668655,308.649750 237.740723,310.468475 229.713684,311.200867 
	C224.356720,311.689636 221.454056,308.875793 221.047729,303.643402 
	C220.249924,293.369659 219.624420,283.060944 219.535645,272.761444 
	C219.478317,266.112579 222.238770,263.823486 228.885223,263.955048 
	C235.033997,264.076721 241.198395,264.356750 247.314346,264.976990 
	C257.676971,266.028015 264.537689,271.906525 266.117737,280.629211 
	C268.357147,292.992279 264.391235,301.911407 254.002991,307.174194 
z"/>
<path fill="#090813" opacity="1.000000" stroke="none" 
	d="
M238.009186,238.971344 
	C234.091599,239.253967 230.569748,239.944855 227.157776,239.587326 
	C221.818054,239.027786 219.243484,235.858856 219.268600,230.474319 
	C219.311966,221.176071 219.460419,211.875763 219.750931,202.582123 
	C219.945175,196.368317 222.289642,193.925934 228.338318,194.142197 
	C235.475311,194.397369 242.647644,194.833893 249.704575,195.872147 
	C259.239929,197.275055 267.230255,207.079773 266.953796,216.225403 
	C266.558807,229.292419 260.642731,236.445480 248.888229,237.938843 
	C245.425003,238.378815 241.932999,238.592285 238.009186,238.971344 
z"/>
</svg>